{
    "asset" : {
        "generator" : "Khronos glTF Blender I/O v0.9.36",
        "version" : "2.0"
    },
    "scene" : 0,
    "scenes" : [
        {
            "name" : "Scene",
            "nodes" : [
                0
            ]
        }
    ],
    "nodes" : [
        {
            "mesh" : 0,
            "name" : "\u7acb\u65b9\u4f53",
            "scale" : [
                0.2775970697402954,
                0.2775970697402954,
                0.2775970697402954
            ],
            "translation" : [
                -0.5013389587402344,
                1.1394063234329224,
                0
            ]
        }
    ],
    "materials" : [
        {
            "doubleSided" : true,
            "name" : "Material.001",
            "pbrMetallicRoughness" : {
                "baseColorTexture" : {
                    "index" : 0,
                    "texCoord" : 0
                },
                "metallicFactor" : 0,
                "roughnessFactor" : 0.5
            }
        },
        {
            "alphaMode" : "BLEND",
            "doubleSided" : true,
            "name" : "\u30de\u30c6\u30ea\u30a2\u30eb",
            "pbrMetallicRoughness" : {
                "baseColorTexture" : {
                    "index" : 1,
                    "texCoord" : 0
                },
                "metallicFactor" : 0,
                "roughnessFactor" : 0.5
            }
        }
    ],
    "meshes" : [
        {
            "name" : "\u7acb\u65b9\u4f53",
            "primitives" : [
                {
                    "attributes" : {
                        "POSITION" : 0,
                        "NORMAL" : 1,
                        "TEXCOORD_0" : 2
                    },
                    "indices" : 3,
                    "material" : 0
                },
                {
                    "attributes" : {
                        "POSITION" : 4,
                        "NORMAL" : 5,
                        "TEXCOORD_0" : 6
                    },
                    "indices" : 7,
                    "material" : 1
                }
            ]
        }
    ],
    "textures" : [
        {
            "source" : 0
        },
        {
            "source" : 1
        }
    ],
    "images" : [
        {
            "mimeType" : "image/png",
            "name" : "01",
            "uri" : "01.png"
        },
        {
            "mimeType" : "image/png",
            "name" : "02",
            "uri" : "02.png"
        }
    ],
    "accessors" : [
        {
            "bufferView" : 0,
            "componentType" : 5126,
            "count" : 10130,
            "max" : [
                6.786190032958984,
                2.2139108180999756,
                3.2583794593811035
            ],
            "min" : [
                -2.51094126701355,
                -10.517008781433105,
                -2.207549571990967
            ],
            "type" : "VEC3"
        },
        {
            "bufferView" : 1,
            "componentType" : 5126,
            "count" : 10130,
            "type" : "VEC3"
        },
        {
            "bufferView" : 2,
            "componentType" : 5126,
            "count" : 10130,
            "type" : "VEC2"
        },
        {
            "bufferView" : 3,
            "componentType" : 5123,
            "count" : 25632,
            "type" : "SCALAR"
        },
        {
            "bufferView" : 4,
            "componentType" : 5126,
            "count" : 10343,
            "max" : [
                6.8308234214782715,
                2.25618052482605,
                3.3005928993225098
            ],
            "min" : [
                -2.5551917552948,
                -10.487387657165527,
                -2.188368797302246
            ],
            "type" : "VEC3"
        },
        {
            "bufferView" : 5,
            "componentType" : 5126,
            "count" : 10343,
            "type" : "VEC3"
        },
        {
            "bufferView" : 6,
            "componentType" : 5126,
            "count" : 10343,
            "type" : "VEC2"
        },
        {
            "bufferView" : 7,
            "componentType" : 5123,
            "count" : 25440,
            "type" : "SCALAR"
        }
    ],
    "bufferViews" : [
        {
            "buffer" : 0,
            "byteLength" : 121560,
            "byteOffset" : 0
        },
        {
            "buffer" : 0,
            "byteLength" : 121560,
            "byteOffset" : 121560
        },
        {
            "buffer" : 0,
            "byteLength" : 81040,
            "byteOffset" : 243120
        },
        {
            "buffer" : 0,
            "byteLength" : 51264,
            "byteOffset" : 324160
        },
        {
            "buffer" : 0,
            "byteLength" : 124116,
            "byteOffset" : 375424
        },
        {
            "buffer" : 0,
            "byteLength" : 124116,
            "byteOffset" : 499540
        },
        {
            "buffer" : 0,
            "byteLength" : 82744,
            "byteOffset" : 623656
        },
        {
            "buffer" : 0,
            "byteLength" : 50880,
            "byteOffset" : 706400
        }
    ],
    "buffers" : [
        {
            "byteLength" : 757280,
            "uri" : "tyou_hi.bin"
        }
    ]
}
