{
    "asset" : {
        "generator" : "Khronos glTF Blender I/O v0.9.36",
        "version" : "2.0"
    },
    "scene" : 0,
    "scenes" : [
        {
            "name" : "Scene",
            "nodes" : [
                0
            ]
        }
    ],
    "nodes" : [
        {
            "mesh" : 0,
            "name" : "\u7acb\u65b9\u4f53",
            "scale" : [
                0.2775970697402954,
                0.2775970697402954,
                0.2775970697402954
            ],
            "translation" : [
                -0.5013389587402344,
                1.1394063234329224,
                0
            ]
        }
    ],
    "materials" : [
        {
            "doubleSided" : true,
            "name" : "Material.001",
            "pbrMetallicRoughness" : {
                "baseColorTexture" : {
                    "index" : 0,
                    "texCoord" : 0
                },
                "metallicFactor" : 0,
                "roughnessFactor" : 0.5
            }
        },
        {
            "alphaMode" : "BLEND",
            "doubleSided" : true,
            "name" : "\u30de\u30c6\u30ea\u30a2\u30eb",
            "pbrMetallicRoughness" : {
                "baseColorTexture" : {
                    "index" : 1,
                    "texCoord" : 0
                },
                "metallicFactor" : 0,
                "roughnessFactor" : 0.5
            }
        }
    ],
    "meshes" : [
        {
            "name" : "\u7acb\u65b9\u4f53",
            "primitives" : [
                {
                    "attributes" : {
                        "POSITION" : 0,
                        "NORMAL" : 1,
                        "TEXCOORD_0" : 2
                    },
                    "indices" : 3,
                    "material" : 0
                },
                {
                    "attributes" : {
                        "POSITION" : 4,
                        "NORMAL" : 5,
                        "TEXCOORD_0" : 6
                    },
                    "indices" : 7,
                    "material" : 1
                }
            ]
        }
    ],
    "textures" : [
        {
            "source" : 0
        },
        {
            "source" : 1
        }
    ],
    "images" : [
        {
            "mimeType" : "image/png",
            "name" : "01",
            "uri" : "01.png"
        },
        {
            "mimeType" : "image/png",
            "name" : "02",
            "uri" : "02.png"
        }
    ],
    "accessors" : [
        {
            "bufferView" : 0,
            "componentType" : 5126,
            "count" : 2797,
            "max" : [
                6.887270450592041,
                2.3386237621307373,
                3.4039549827575684
            ],
            "min" : [
                -2.6140363216400146,
                -10.540552139282227,
                -2.3084356784820557
            ],
            "type" : "VEC3"
        },
        {
            "bufferView" : 1,
            "componentType" : 5126,
            "count" : 2797,
            "type" : "VEC3"
        },
        {
            "bufferView" : 2,
            "componentType" : 5126,
            "count" : 2797,
            "type" : "VEC2"
        },
        {
            "bufferView" : 3,
            "componentType" : 5123,
            "count" : 6408,
            "type" : "SCALAR"
        },
        {
            "bufferView" : 4,
            "componentType" : 5126,
            "count" : 2902,
            "max" : [
                6.937259674072266,
                2.386549949645996,
                3.4533185958862305
            ],
            "min" : [
                -2.6639859676361084,
                -10.496153831481934,
                -2.3084356784820557
            ],
            "type" : "VEC3"
        },
        {
            "bufferView" : 5,
            "componentType" : 5126,
            "count" : 2902,
            "type" : "VEC3"
        },
        {
            "bufferView" : 6,
            "componentType" : 5126,
            "count" : 2902,
            "type" : "VEC2"
        },
        {
            "bufferView" : 7,
            "componentType" : 5123,
            "count" : 6360,
            "type" : "SCALAR"
        }
    ],
    "bufferViews" : [
        {
            "buffer" : 0,
            "byteLength" : 33564,
            "byteOffset" : 0
        },
        {
            "buffer" : 0,
            "byteLength" : 33564,
            "byteOffset" : 33564
        },
        {
            "buffer" : 0,
            "byteLength" : 22376,
            "byteOffset" : 67128
        },
        {
            "buffer" : 0,
            "byteLength" : 12816,
            "byteOffset" : 89504
        },
        {
            "buffer" : 0,
            "byteLength" : 34824,
            "byteOffset" : 102320
        },
        {
            "buffer" : 0,
            "byteLength" : 34824,
            "byteOffset" : 137144
        },
        {
            "buffer" : 0,
            "byteLength" : 23216,
            "byteOffset" : 171968
        },
        {
            "buffer" : 0,
            "byteLength" : 12720,
            "byteOffset" : 195184
        }
    ],
    "buffers" : [
        {
            "byteLength" : 207904,
            "uri" : "tyou_lo.bin"
        }
    ]
}
