{
    "asset" : {
        "generator" : "Khronos glTF Blender I/O v0.9.36",
        "version" : "2.0"
    },
    "scene" : 0,
    "scenes" : [
        {
            "name" : "Scene",
            "nodes" : [
                0
            ]
        }
    ],
    "nodes" : [
        {
            "mesh" : 0,
            "name" : "\u7acb\u65b9\u4f53.001"
        }
    ],
    "materials" : [
        {
            "doubleSided" : true,
            "name" : "Material.001",
            "pbrMetallicRoughness" : {
                "baseColorTexture" : {
                    "index" : 0,
                    "texCoord" : 0
                },
                "metallicFactor" : 0,
                "roughnessFactor" : 0.5
            }
        },
        {
            "alphaMode" : "BLEND",
            "doubleSided" : true,
            "name" : "\u30de\u30c6\u30ea\u30a2\u30eb",
            "pbrMetallicRoughness" : {
                "baseColorTexture" : {
                    "index" : 1,
                    "texCoord" : 0
                },
                "metallicFactor" : 0,
                "roughnessFactor" : 0.5
            }
        }
    ],
    "meshes" : [
        {
            "name" : "\u7acb\u65b9\u4f53.001",
            "primitives" : [
                {
                    "attributes" : {
                        "POSITION" : 0,
                        "NORMAL" : 1,
                        "TEXCOORD_0" : 2
                    },
                    "indices" : 3,
                    "material" : 0
                },
                {
                    "attributes" : {
                        "POSITION" : 4,
                        "NORMAL" : 5,
                        "TEXCOORD_0" : 6
                    },
                    "indices" : 7,
                    "material" : 1
                }
            ]
        }
    ],
    "textures" : [
        {
            "source" : 0
        },
        {
            "source" : 1
        }
    ],
    "images" : [
        {
            "mimeType" : "image/png",
            "name" : "01",
            "uri" : "01.png"
        },
        {
            "mimeType" : "image/png",
            "name" : "02",
            "uri" : "02.png"
        }
    ],
    "accessors" : [
        {
            "bufferView" : 0,
            "componentType" : 5126,
            "count" : 9313,
            "max" : [
                0.8177955746650696,
                0.35616129636764526,
                0.2588064968585968
            ],
            "min" : [
                -0.8700301051139832,
                -0.5962536334991455,
                -0.3381105363368988
            ],
            "type" : "VEC3"
        },
        {
            "bufferView" : 1,
            "componentType" : 5126,
            "count" : 9313,
            "type" : "VEC3"
        },
        {
            "bufferView" : 2,
            "componentType" : 5126,
            "count" : 9313,
            "type" : "VEC2"
        },
        {
            "bufferView" : 3,
            "componentType" : 5123,
            "count" : 52224,
            "type" : "SCALAR"
        },
        {
            "bufferView" : 4,
            "componentType" : 5126,
            "count" : 9313,
            "max" : [
                0.8326774835586548,
                0.37331950664520264,
                0.27426669001579285
            ],
            "min" : [
                -0.8817592263221741,
                -0.6116650700569153,
                -0.35189732909202576
            ],
            "type" : "VEC3"
        },
        {
            "bufferView" : 5,
            "componentType" : 5126,
            "count" : 9313,
            "type" : "VEC3"
        },
        {
            "bufferView" : 6,
            "componentType" : 5126,
            "count" : 9313,
            "type" : "VEC2"
        },
        {
            "bufferView" : 7,
            "componentType" : 5123,
            "count" : 52224,
            "type" : "SCALAR"
        }
    ],
    "bufferViews" : [
        {
            "buffer" : 0,
            "byteLength" : 111756,
            "byteOffset" : 0
        },
        {
            "buffer" : 0,
            "byteLength" : 111756,
            "byteOffset" : 111756
        },
        {
            "buffer" : 0,
            "byteLength" : 74504,
            "byteOffset" : 223512
        },
        {
            "buffer" : 0,
            "byteLength" : 104448,
            "byteOffset" : 298016
        },
        {
            "buffer" : 0,
            "byteLength" : 111756,
            "byteOffset" : 402464
        },
        {
            "buffer" : 0,
            "byteLength" : 111756,
            "byteOffset" : 514220
        },
        {
            "buffer" : 0,
            "byteLength" : 74504,
            "byteOffset" : 625976
        },
        {
            "buffer" : 0,
            "byteLength" : 104448,
            "byteOffset" : 700480
        }
    ],
    "buffers" : [
        {
            "byteLength" : 804928,
            "uri" : "kansou.bin"
        }
    ]
}
